<?xml version="1.0" encoding="UTF-8" standalone="no"?><svg data-v-423bf9ae="" xmlns="http://www.w3.org/2000/svg" viewBox="0 0 368 90" class="iconLeft"><!----><!----><!----><g data-v-423bf9ae="" id="415c3413-6831-4dd8-8edb-f4b650946f22" fill="black" transform="matrix(5.449591167364901,0,0,5.449591167364901,107.15314640391969,-9.468662140481655)"><path d="M4.66 9.49L4.66 11.68L6.33 11.68L6.33 11.84C6.33 12.92 5.70 13.37 4.82 13.37C3.67 13.37 3.19 12.92 3.19 11.59L3.19 8.41C3.19 7.04 3.77 6.61 4.73 6.61C5.70 6.61 6.22 7.03 6.22 8.08L6.22 8.27L8.69 8.27L8.69 8.15C8.69 5.75 7.34 4.49 4.73 4.49C2.11 4.49 0.76 5.82 0.76 8.36L0.76 11.66C0.76 14.15 2.06 15.50 4.72 15.50C7.38 15.50 8.69 14.31 8.69 11.70L8.69 9.49ZM17.65 12.04C17.65 10.77 17.01 9.95 16.31 9.60C16.80 9.21 17.11 8.55 17.11 7.64L17.11 7.53C17.08 5.35 15.96 4.66 13.40 4.66L10.15 4.66L10.15 15.33L13.83 15.33C16.48 15.33 17.65 14.57 17.65 12.19ZM15.20 12.18C15.20 13.09 14.90 13.37 14 13.37L12.52 13.37L12.52 10.92L13.94 10.92C14.81 10.92 15.20 11.17 15.20 12.07ZM13.50 6.61C14.36 6.61 14.77 6.82 14.77 7.73L14.77 7.81C14.77 8.71 14.46 8.97 13.59 8.97L12.52 8.97L12.52 6.61ZM21.71 10.84C23.21 11.19 23.67 11.51 23.67 12.28C23.67 13.02 23.27 13.40 22.36 13.40C21.28 13.40 20.93 12.94 20.90 12.24L18.49 12.24C18.49 13.94 19.43 15.50 22.25 15.50C25.09 15.50 26.11 14.21 26.11 12.21C26.11 9.66 24.18 9.18 22.57 8.79C21.46 8.54 21.07 8.20 21.07 7.50C21.07 6.96 21.35 6.59 22.13 6.59C23.04 6.59 23.39 6.92 23.49 7.71L25.90 7.71C25.72 5.33 24.35 4.49 22.15 4.49C19.89 4.49 18.69 5.59 18.69 7.59C18.69 10.00 20.22 10.44 21.71 10.84ZM38.54 4.66L36.13 4.66L36.13 8.79L33.18 8.79L33.18 4.66L30.76 4.66L30.76 15.33L33.18 15.33L33.18 10.96L36.13 10.96L36.13 15.33L38.54 15.33ZM45.08 15.33L47.82 15.33L46.03 10.93C46.94 10.43 47.35 9.56 47.35 8.19L47.35 7.98C47.35 5.73 46.19 4.66 43.61 4.66L40.22 4.66L40.22 15.33L42.60 15.33L42.60 11.45L43.76 11.45ZM42.60 6.78L43.64 6.78C44.62 6.78 44.97 7.06 44.97 8.02L44.97 8.11C44.97 9.03 44.69 9.34 43.68 9.34L42.60 9.34Z"></path></g><!----><g data-v-423bf9ae="" id="75e75cc4-9799-43b3-aa1a-266ca8a76f5b" transform="matrix(2.852072528086791,0,0,2.852072528086791,0.3618419448213217,-0.41116010653409063)" stroke="none" fill="black"><path d="M16 23.787L8.102 16 16 8.213 23.898 16 16 23.787zM9.525 16L16 22.383 22.475 16 16 9.617 9.525 16z"></path><path d="M15.915 31.778L-.005 16.084 16.085.222l15.92 15.694-16.09 15.862zM1.419 16.084l14.496 14.29 14.666-14.458-14.496-14.29L1.419 16.084z"></path><path d="M15.5.924h1v30.152h-1z"></path></g><!----></svg>