<svg data-v-423bf9ae="" xmlns="http://www.w3.org/2000/svg" viewBox="0 0 412 90" class="iconLeft"><!----><!----><!----><g data-v-423bf9ae="" id="de00939a-a6d0-4bed-9803-78ccb4a9c980" fill="#ECEBE7" transform="matrix(5.323868461661617,0,0,5.323868461661617,122.81111949935948,6.801243725804888)"><path d="M8.47 2.80L8.47 9.38L0.98 2.59L0.98 12.60L2.52 12.60L2.52 6.02L10.01 12.81L10.01 2.80ZM12.54 8.01C13.19 7.54 13.85 7.31 14.53 7.31C15.44 7.31 15.89 7.56 15.89 8.05L15.89 8.90C15.42 8.65 14.87 8.53 14.22 8.53C13.40 8.53 12.72 8.72 12.17 9.11C11.62 9.51 11.34 10.06 11.34 10.78C11.34 11.43 11.57 11.92 12.03 12.25C12.48 12.58 13.04 12.74 13.69 12.74C14.19 12.74 14.63 12.65 15.02 12.46C15.40 12.27 15.69 12.01 15.89 11.68L15.89 12.60L17.36 12.60L17.36 7.98C17.36 7.32 17.10 6.82 16.59 6.50C16.08 6.18 15.39 6.02 14.53 6.02C13.62 6.02 12.77 6.30 12.00 6.87ZM12.75 10.64C12.75 10.36 12.91 10.12 13.22 9.90C13.52 9.70 13.93 9.59 14.42 9.59C14.95 9.59 15.44 9.67 15.89 9.84L15.89 10.08C15.89 10.65 15.74 11.05 15.45 11.27C15.16 11.49 14.71 11.61 14.11 11.61C13.21 11.61 12.75 11.28 12.75 10.64ZM22.16 3.36L22.88 2.20C22.55 1.76 22.08 1.54 21.46 1.54C20.73 1.54 20.18 1.75 19.81 2.16C19.44 2.57 19.25 3.15 19.25 3.92L19.25 6.16L18.48 6.16L18.48 7.49L19.25 7.49L19.25 12.60L20.72 12.60L20.72 7.49L22.33 7.49L22.33 6.16L20.72 6.16L20.72 4.06C20.72 3.69 20.80 3.41 20.95 3.22C21.11 3.03 21.30 2.94 21.53 2.94C21.78 2.94 21.99 3.08 22.16 3.36ZM24.15 8.01C24.79 7.54 25.46 7.31 26.14 7.31C27.04 7.31 27.50 7.56 27.50 8.05L27.50 8.90C27.03 8.65 26.47 8.53 25.83 8.53C25.01 8.53 24.32 8.72 23.77 9.11C23.22 9.51 22.95 10.06 22.95 10.78C22.95 11.43 23.17 11.92 23.63 12.25C24.09 12.58 24.64 12.74 25.30 12.74C25.79 12.74 26.23 12.65 26.62 12.46C27.01 12.27 27.30 12.01 27.50 11.68L27.50 12.60L28.97 12.60L28.97 7.98C28.97 7.32 28.71 6.82 28.20 6.50C27.68 6.18 27.00 6.02 26.14 6.02C25.22 6.02 24.38 6.30 23.60 6.87ZM24.36 10.64C24.36 10.36 24.51 10.12 24.82 9.90C25.13 9.70 25.53 9.59 26.03 9.59C26.56 9.59 27.05 9.67 27.50 9.84L27.50 10.08C27.50 10.65 27.35 11.05 27.05 11.27C26.76 11.49 26.32 11.61 25.72 11.61C24.81 11.61 24.36 11.28 24.36 10.64ZM33.67 7.49L29.95 12.60L35.83 12.60L35.83 11.27L32.52 11.27L36.25 6.16L30.37 6.16L30.37 7.49ZM37.30 2.80L37.30 12.60L38.84 12.60L38.84 7.98L43.88 7.98L43.88 12.60L45.42 12.60L45.42 2.80L43.88 2.80L43.88 6.58L38.84 6.58L38.84 2.80ZM47.38 2.80L47.38 12.60L48.92 12.60L48.92 8.82L49.90 8.82L52.49 12.60L54.31 12.60L51.59 8.64C52.23 8.44 52.75 8.09 53.14 7.59C53.52 7.10 53.72 6.50 53.72 5.81C53.72 4.91 53.40 4.19 52.77 3.63C52.14 3.08 51.35 2.80 50.39 2.80ZM48.92 4.20L50.39 4.20C50.95 4.20 51.38 4.34 51.70 4.61C52.02 4.89 52.18 5.29 52.18 5.81C52.18 6.33 52.02 6.73 51.70 7.01C51.38 7.28 50.95 7.42 50.39 7.42L48.92 7.42Z"></path></g><!----><g data-v-423bf9ae="" id="a58c183c-6d68-49e7-ab4e-028a39b87211" transform="matrix(1.7039198600924363,0,0,1.7039198600924363,-30.966386235259108,-39.59886391372305)" stroke="none" fill="#ECEBE7"><path d="M64.8 34v1.9h3c1.9 0 3.4 1.5 3.4 3.4v7.8c0 .6-.5 1.2-1.2 1.2-.6 0-1.2-.5-1.2-1.2v-7.8c0-.6-.5-1.1-1.1-1.1h-3v1.9c0 .5-.5.9-.9.6L59 37.6c-.4-.3-.4-.9 0-1.2l4.8-3.1c.5-.2 1 .1 1 .7zm-36 5.3v3h-1.9c-.5 0-.9.5-.6.9l3.1 4.8c.3.4.9.4 1.2 0l3.1-4.8c.3-.4-.1-.9-.6-.9h-1.9v-3c0-.6.5-1.1 1.1-1.1h6c.6 0 1.2-.5 1.2-1.2 0-.6-.5-1.2-1.2-1.2h-6c-2 .1-3.5 1.6-3.5 3.5zm15.7 30.9h6.2v1.9c0 .5.5.9.9.6l4.8-3.1c.4-.3.4-.9 0-1.2l-4.8-3.1c-.4-.3-.9.1-.9.6v1.9h-6.2c-.6 0-1.2.5-1.2 1.2s.5 1.2 1.2 1.2zm.7-31.5c-.7.3-3.9 1.9-6.8 4.4-.5.4-.8 1.1-.8 1.8v3.3h10.1l1-4.6c-2-2.8.2-3 .5-3 .4 0 2.5.1.5 3l1 4.6h10.1v-3.3c0-.7-.3-1.3-.8-1.8-3-2.4-6.2-4.1-6.8-4.4-.1 0-.1-.1-.1-.2v-2c.3-.6.5-1.3.6-1.9.3.2.7.1 1.2-1.6.4-1.4.2-1.9-.2-2 1.1-5.3-1.4-5.5-1.4-5.5s-.4-.7-1.4-1.3c-.7-.4-1.6-.7-2.8-.6-.4 0-.8.1-1.1.2-.5.2-.9.4-1.2.6-.5.3-.9.7-1.3 1.1-.6.6-1.2 1.4-1.4 2.4-.2.9-.2 1.8.1 2.7-.5 0-1 .2-.5 2 .4 1.3.7 1.7 1 1.7.1.7.4 1.6.8 2.3v1.7c-.1.3-.2.4-.3.4zm28.7 28v-2c.3-.6.5-1.3.6-1.9.3.2.7.1 1.2-1.6.4-1.4.2-1.9-.2-2 1.1-5.3-1.4-5.5-1.4-5.5s-.4-.7-1.4-1.3c-.7-.4-1.6-.7-2.8-.6-.4 0-.8.1-1.1.2-.5.2-.9.4-1.2.6-.5.3-.9.7-1.3 1.1-.6.6-1.2 1.4-1.4 2.4-.2.9-.2 1.8.1 2.7-.5 0-1 .2-.5 2 .4 1.3.7 1.7 1 1.7.1.7.4 1.6.8 2.3v1.7c0 .1 0 .2-.1.2-.7.3-3.9 1.9-6.8 4.4-.5.4-.8 1.1-.8 1.8v3.3h10.1l1-4.6c-2-2.8.2-3 .5-3 .4 0 2.5.1.5 3l1 4.6h10.1V73c0-.7-.3-1.3-.8-1.8-3-2.4-6.2-4.1-6.8-4.4-.2 0-.3-.1-.3-.1zm-47.9.2c-.7.3-3.9 1.9-6.8 4.4-.5.4-.8 1.1-.8 1.8v3.3h10.1l1-4.6c-2-2.8.2-3 .5-3 .4 0 2.5.1.5 3l1 4.6h10.1V73c0-.7-.3-1.3-.8-1.8-3-2.4-6.2-4.1-6.8-4.4-.1 0-.1-.1-.1-.2v-2c.3-.6.5-1.3.6-1.9.3.2.7.1 1.2-1.6.4-1.4.2-1.9-.2-2 1.1-5.3-1.4-5.5-1.4-5.5s-.4-.7-1.4-1.3c-.7-.4-1.6-.7-2.8-.6-.4 0-.8.1-1.1.2-.5.2-.9.4-1.2.6-.5.3-.9.7-1.3 1.1-.6.6-1.2 1.4-1.4 2.4-.2.9-.2 1.8.1 2.7-.5 0-1 .2-.5 2 .4 1.3.7 1.7 1 1.7.1.7.4 1.6.8 2.3v1.7c-.2.3-.3.4-.3.5z"></path></g><!----></svg>